<?xml version="1.0" encoding="utf-8"?>
<!-- Generator: Adobe Illustrator 25.0.0, SVG Export Plug-In . SVG Version: 6.00 Build 0)  -->
<svg version="1.1" id="レイヤー_1" xmlns="http://www.w3.org/2000/svg" xmlns:xlink="http://www.w3.org/1999/xlink" x="0px"
	 y="0px" viewBox="0 0 386 150" style="enable-background:new 0 0 386 150;" xml:space="preserve">
<g>
	<path d="M12.9,79.7L0,54h18.8l4.2,8.6l4.3-8.6h15.7L30,79.7v16.5H12.9V79.7z"/>
	<path d="M68,97.2c-14,0-21-6-21-17.9V54h16.7v24.9c0,2.5,0.8,4.1,2.5,4.9c0.6,0.3,1.3,0.4,2.1,0.4c2.3,0,3.7-1.1,4.3-3.3
		c0.2-0.7,0.3-1.4,0.3-2.1V54h14.6v25.4C87.5,91.3,81,97.2,68,97.2z"/>
	<path d="M110.3,54v13l10.2-13h17.1L124,71.8l15.7,24.4h-19.3l-8.8-14.9l-1,1.7v13.2H93.6V54H110.3z"/>
	<path d="M161.7,96.2h-16.4V54h16.4V96.2z"/>
	<path d="M190.4,97.2c-6.3,0-11.7-2-16.3-6.1c-1.5-1.3-2.7-2.8-3.8-4.4c-2.3-3.5-3.4-7.4-3.4-11.8c0-4.3,1.1-8.2,3.2-11.5
		c2.1-3.3,4.9-6,8.5-7.8c3.6-1.9,7.2-2.8,11.1-2.8s7.2,0.5,10.1,1.5c2.9,1,5.4,2.5,7.6,4.4s3.9,4.2,5.1,7c1.2,2.8,1.9,5.9,1.9,9.4
		c0,4.3-1.1,8.2-3.3,11.6c-2.2,3.4-5.1,6-8.8,7.8C198.4,96.3,194.5,97.2,190.4,97.2z M197.6,70c0-3-1.4-4.5-4.3-4.5
		c-1.2,0-2.6,0.8-4.1,2.3c-2.3,2.3-3.9,5.1-4.8,8.4c-0.3,1-0.4,2-0.4,2.8c0,2.9,1.5,4.4,4.4,4.4c1.2,0,2.5-0.8,4-2.4
		c2.2-2.3,3.8-5.1,4.7-8.5C197.4,71.6,197.6,70.8,197.6,70z"/>
	<path d="M230.9,66.7h-14.6V54h41.1v3.2l-16.3,26.9h16.3v12.1h-42.7v-2.4L230.9,66.7z"/>
	<path d="M260.4,96.2l21-40c0.7-1.4,2.1-2.4,4-2.9c0.6-0.1,1.3-0.2,2.1-0.2s1.7,0.2,2.7,0.7c1,0.5,1.7,1.2,2.3,2.2L315,96.2h-21.4
		l-1.7-4.2h-11.4l-1.4,4.2H260.4z M281.8,83.6h8.5l-4-11.4L281.8,83.6z"/>
	<path d="M335.7,54v13l10.2-13H363l-13.6,17.8l15.7,24.4h-19.3l-8.8-14.9l-1,1.7v13.2H319V54H335.7z"/>
	<path d="M386,96.2h-16.4V54H386V96.2z"/>
</g>
</svg>
